<?xml version="1.0" standalone="no"?>
<!DOCTYPE svg PUBLIC "-//W3C//DTD SVG 20010904//EN"
 "http://www.w3.org/TR/2001/REC-SVG-20010904/DTD/svg10.dtd">
<svg version="1.0" xmlns="http://www.w3.org/2000/svg"
 width="214.000000pt" height="144.000000pt" viewBox="0 0 214.000000 144.000000"
 preserveAspectRatio="xMidYMid meet">
<metadata>
Created by potrace 1.10, written by Peter Selinger 2001-2011
</metadata>
<g transform="translate(0.000000,144.000000) scale(0.100000,-0.100000)"
fill="#000000" stroke="none">
<path d="M258 1307 l-178 -72 0 -63 c0 -46 4 -64 15 -68 8 -4 15 -12 15 -19 0
-11 17 -8 71 10 39 14 105 34 147 46 42 11 83 26 92 31 13 8 24 6 46 -9 56
-39 160 -103 167 -103 4 0 7 8 7 19 0 12 -29 37 -88 74 -49 31 -96 59 -105 63
-9 3 -83 -15 -164 -40 -82 -25 -152 -46 -156 -46 -5 0 -7 19 -5 41 l3 42 95
37 c52 21 123 49 158 63 l62 26 68 -51 c37 -28 76 -59 88 -69 22 -20 34 -24
34 -11 0 7 -186 173 -192 172 -2 -1 -83 -33 -180 -73z"/>
<path d="M373 1083 c-21 -14 -23 -23 -23 -112 l0 -96 57 2 c58 1 81 17 69 49
-7 19 -35 18 -42 -1 -4 -8 -12 -15 -20 -15 -11 0 -14 17 -14 69 0 39 4 72 8
75 14 8 31 -9 29 -29 -1 -14 4 -20 18 -20 16 0 20 7 21 38 1 21 -3 40 -8 43
-20 13 -75 11 -95 -3z"/>
<path d="M1557 1083 c-4 -3 -7 -39 -7 -80 0 -59 3 -73 16 -73 12 0 15 12 13
69 -1 37 1 73 5 80 8 12 -16 16 -27 4z"/>
<path d="M270 1061 c-8 -5 -40 -14 -70 -21 -99 -21 -95 -19 -71 -41 19 -18 23
-18 58 -5 21 8 57 20 81 26 31 8 42 16 42 30 0 21 -15 25 -40 11z"/>
<path d="M717 1042 c-23 -25 -22 -85 2 -106 20 -18 46 -13 55 11 8 20 -4 39
-14 23 -11 -18 -40 -4 -40 18 0 24 25 48 35 32 9 -15 25 -12 25 5 0 8 -9 19
-19 25 -25 13 -25 13 -44 -8z"/>
<path d="M810 1040 c-40 -40 -9 -126 41 -113 37 10 39 96 2 120 -19 13 -24 12
-43 -7z m50 -50 c0 -20 -23 -43 -33 -33 -4 3 -7 18 -7 33 0 15 3 30 7 33 10
10 33 -13 33 -33z"/>
<path d="M1275 1050 c-4 -6 -6 -30 -5 -53 3 -65 -1 -66 -19 -7 -19 62 -45 78
-54 33 -3 -15 -11 -41 -17 -58 -12 -30 -12 -30 -21 -7 -5 14 -5 31 1 42 16 30
2 50 -36 50 -33 0 -34 -2 -34 -37 0 -21 -3 -48 -6 -60 -5 -17 -2 -23 9 -23 10
0 17 11 19 28 l4 27 14 -27 c10 -21 21 -28 41 -28 15 0 29 6 32 13 3 10 9 10
26 0 11 -7 43 -13 71 -13 40 0 48 3 44 15 -4 8 -15 15 -25 15 -16 0 -19 8 -19
44 0 44 -12 66 -25 46z"/>
<path d="M1370 1040 c-41 -41 -7 -135 40 -110 11 6 23 22 26 35 16 62 -28 113
-66 75z m41 -62 c-4 -11 -11 -20 -16 -21 -12 -2 -19 39 -10 61 6 16 8 15 20
-1 8 -12 11 -27 6 -39z"/>
<path d="M522 1033 c3 -15 83 -81 101 -82 23 -2 0 34 -40 64 -54 39 -66 43
-61 18z"/>
<path d="M900 990 c0 -44 4 -60 14 -60 9 0 12 8 8 25 -2 14 0 25 6 25 5 0 13
-11 16 -25 4 -14 13 -25 21 -25 12 0 15 14 15 60 0 46 -3 60 -15 60 -11 0 -13
-8 -8 -30 3 -18 1 -30 -5 -30 -6 0 -13 14 -17 30 -4 17 -13 30 -21 30 -10 0
-14 -15 -14 -60z"/>
<path d="M990 1035 c0 -8 7 -15 16 -15 14 0 16 -8 12 -45 -5 -40 -3 -45 14
-45 17 0 19 6 17 42 -2 26 1 43 9 46 6 2 12 10 12 18 0 10 -12 14 -40 14 -29
0 -40 -4 -40 -15z"/>
<path d="M1460 1048 c-7 -47 -3 -118 7 -118 6 0 13 12 15 28 l4 27 12 -27 c6
-16 19 -28 27 -28 10 0 13 5 9 12 -4 6 -8 32 -8 57 -1 44 -2 46 -33 49 -18 2
-33 2 -33 0z"/>
<path d="M1616 1038 c-11 -36 -25 -103 -21 -106 1 -2 13 3 25 10 18 10 24 10
27 1 3 -7 13 -13 22 -13 17 0 17 3 -1 60 -19 56 -43 79 -52 48z"/>
<path d="M203 955 c-76 -19 -113 -35 -85 -35 7 0 12 -7 12 -16 0 -12 5 -14 18
-9 9 4 50 14 90 23 65 13 72 17 72 38 0 28 0 28 -107 -1z"/>
<path d="M520 943 c0 -11 21 -30 52 -48 69 -39 68 -39 68 -21 0 14 -94 86
-112 86 -5 0 -8 -8 -8 -17z"/>
<path d="M220 870 c-36 -10 -75 -19 -87 -19 -27 -1 -29 -13 -8 -31 13 -11 27
-10 76 4 33 9 63 14 67 12 14 -8 45 23 39 39 -7 18 -4 18 -87 -5z"/>
<path d="M1826 817 c-8 -35 -18 -71 -22 -80 -8 -23 15 -22 32 1 13 16 15 16
29 -2 8 -11 17 -17 21 -14 8 8 -17 117 -28 124 -5 3 -4 12 3 20 9 11 8 14 -4
14 -10 0 -20 -21 -31 -63z"/>
<path d="M520 850 c0 -12 13 -25 38 -37 20 -9 43 -23 50 -30 19 -18 32 -16 32
5 0 20 -33 52 -54 52 -7 0 -19 7 -26 15 -18 21 -40 19 -40 -5z"/>
<path d="M700 795 c0 -30 0 -58 -1 -62 0 -4 4 -9 10 -11 7 -2 11 12 12 35 l1
38 10 -37 c6 -21 13 -38 17 -38 4 0 12 21 18 48 l10 47 2 -47 c0 -27 5 -48 10
-48 6 0 8 28 7 63 -2 45 -7 62 -17 62 -8 0 -15 -12 -17 -27 -4 -38 -22 -36
-22 2 0 23 -4 30 -20 30 -18 0 -20 -7 -20 -55z"/>
<path d="M820 797 c0 -55 12 -77 42 -77 24 0 38 30 38 84 0 34 -4 46 -15 46
-11 0 -15 -12 -15 -51 0 -66 -24 -62 -28 4 -4 64 -22 59 -22 -6z"/>
<path d="M920 795 c0 -30 0 -58 -1 -62 0 -4 4 -9 10 -11 7 -2 11 12 12 35 l1
38 16 -37 c26 -59 42 -49 42 27 0 51 -3 65 -15 65 -11 0 -13 -8 -8 -30 3 -18
1 -30 -5 -30 -5 0 -15 14 -21 30 -16 48 -31 36 -31 -25z"/>
<path d="M1020 785 c0 -47 4 -65 13 -65 10 0 13 18 13 65 0 47 -3 65 -13 65
-9 0 -13 -18 -13 -65z"/>
<path d="M1079 833 c-18 -21 -18 -76 1 -98 17 -21 43 -19 57 5 15 23 -1 38
-22 20 -12 -10 -16 -9 -21 3 -11 29 0 52 25 49 17 -1 22 2 19 15 -4 24 -41 28
-59 6z"/>
<path d="M1160 785 c0 -51 3 -65 15 -65 12 0 15 14 15 65 0 51 -3 65 -15 65
-12 0 -15 -14 -15 -65z"/>
<path d="M1210 785 c0 -37 4 -65 10 -65 6 0 10 11 10 25 0 18 5 25 19 25 22 0
35 30 26 60 -4 14 -15 20 -36 20 l-29 0 0 -65z"/>
<path d="M1300 809 c-6 -23 -16 -52 -20 -65 -8 -20 -6 -24 10 -24 11 0 20 7
20 15 0 8 5 15 10 15 6 0 13 -7 16 -15 9 -22 37 -19 30 3 -3 9 -10 38 -17 65
-14 58 -34 61 -49 6z"/>
<path d="M1380 785 l0 -65 36 0 c28 0 35 3 32 17 -2 10 -12 18 -23 18 -17 0
-19 6 -16 48 2 37 -1 47 -13 47 -13 0 -16 -13 -16 -65z"/>
<path d="M1500 786 l0 -66 30 0 c38 0 56 37 43 90 -7 30 -13 35 -40 38 l-33 3
0 -65z m50 -2 c0 -45 -24 -42 -28 4 -2 24 1 32 12 32 12 0 16 -10 16 -36z"/>
<path d="M1594 785 l1 -65 38 0 c26 0 37 4 37 15 0 9 -9 15 -25 15 -16 0 -25
6 -25 16 0 10 7 14 22 12 11 -2 23 3 25 10 3 7 -5 12 -21 12 -14 0 -26 5 -26
10 0 6 11 10 25 10 16 0 25 6 25 15 0 11 -11 15 -38 15 l-38 0 0 -65z"/>
<path d="M1720 785 c0 -51 3 -65 15 -65 9 0 15 9 15 23 0 13 9 26 22 32 46 20
29 75 -23 75 -29 0 -29 0 -29 -65z"/>
<path d="M1910 786 l0 -65 81 0 c70 0 80 2 77 17 -2 11 -11 16 -27 14 -19 -3
-21 -1 -12 16 5 10 17 24 25 32 9 7 16 21 16 31 0 15 -8 19 -40 19 -29 0 -40
-4 -40 -15 0 -8 9 -15 20 -15 25 0 25 -4 -2 -40 -24 -33 -78 -43 -78 -15 0 9
9 15 25 15 14 0 25 5 25 10 0 6 -11 10 -25 10 -14 0 -25 5 -25 10 0 6 11 10
25 10 16 0 25 6 25 15 0 10 -11 15 -35 15 l-35 0 0 -64z"/>
<path d="M353 819 c-22 -8 -23 -14 -23 -114 0 -58 4 -105 9 -105 21 0 35 34
32 81 -1 30 2 49 8 49 6 0 11 -18 11 -40 0 -27 5 -43 15 -47 21 -8 26 -1 32
46 9 69 27 62 20 -7 -6 -55 -5 -63 14 -73 11 -6 21 -9 22 -7 1 2 1 49 -1 104
-3 96 -5 102 -27 112 -25 12 -27 8 -38 -77 -1 -8 -7 -16 -13 -18 -7 -2 -14 16
-18 46 -7 57 -12 62 -43 50z"/>
<path d="M220 779 c-36 -10 -75 -18 -87 -18 -23 -1 -23 -1 -4 -20 26 -26 101
-18 101 10 0 11 5 19 11 19 5 0 7 -5 4 -11 -5 -7 5 -9 26 -7 26 2 34 8 34 22
0 26 -9 26 -85 5z"/>
<path d="M522 764 c3 -17 80 -63 106 -64 6 0 12 7 12 16 0 17 -65 48 -81 39
-5 -4 -8 -1 -7 6 2 7 -5 15 -15 17 -14 3 -18 -1 -15 -14z"/>
<path d="M205 687 c-94 -21 -108 -27 -87 -34 6 -3 12 -12 12 -20 0 -11 5 -13
18 -8 9 5 43 14 75 21 78 17 87 21 87 38 0 23 -10 24 -105 3z"/>
<path d="M522 683 c3 -19 97 -75 110 -67 20 13 4 35 -43 58 -60 31 -72 32 -67
9z"/>
<path d="M976 619 c-22 -52 -30 -109 -17 -109 6 0 14 7 17 15 8 20 30 19 38
-2 4 -10 10 -13 16 -7 11 11 -14 111 -31 128 -5 6 -14 -4 -23 -25z"/>
<path d="M700 581 l0 -59 35 -4 c24 -3 35 0 35 9 0 7 -9 13 -20 13 -11 0 -20
7 -20 15 0 8 9 15 20 15 11 0 20 5 20 10 0 6 -9 10 -21 10 -12 0 -19 5 -16 13
2 6 11 11 21 9 9 -2 16 4 16 13 0 11 -10 15 -35 15 l-35 0 0 -59z"/>
<path d="M797 633 c-15 -14 -6 -42 20 -61 31 -23 26 -40 -6 -21 -29 19 -40 1
-13 -21 26 -22 48 -17 64 13 9 17 7 24 -11 38 -12 10 -27 19 -34 22 -6 2 -9 8
-5 12 4 4 14 3 21 -3 16 -14 28 -6 20 14 -5 14 -44 19 -56 7z"/>
<path d="M870 630 c0 -6 7 -13 15 -16 11 -4 15 -21 15 -56 0 -35 4 -48 13 -45
7 2 12 22 11 50 0 33 4 47 13 47 7 0 13 7 13 15 0 11 -11 15 -40 15 -22 0 -40
-5 -40 -10z"/>
<path d="M1050 580 l0 -61 32 3 c25 2 35 9 42 31 16 44 -3 81 -42 85 l-32 3 0
-61z m58 3 c2 -11 -4 -26 -13 -33 -13 -11 -15 -8 -15 25 0 39 22 46 28 8z"/>
<path d="M1154 629 c-4 -6 -7 -28 -7 -49 0 -21 3 -43 7 -49 9 -15 49 -14 64 1
16 16 16 80 0 96 -15 15 -55 16 -64 1z m51 -30 c9 -13 -3 -59 -15 -59 -14 0
-31 37 -24 54 7 18 30 21 39 5z"/>
<path d="M240 604 c-30 -7 -70 -13 -88 -13 -30 -1 -33 -3 -26 -23 3 -13 8 -24
9 -26 2 -2 42 4 89 14 70 14 86 20 86 35 0 25 -8 27 -70 13z"/>
<path d="M520 603 c0 -12 18 -28 53 -45 60 -32 67 -33 67 -13 0 12 -54 47
-112 73 -5 2 -8 -5 -8 -15z"/>
<path d="M367 542 c-13 -15 -17 -39 -17 -115 0 -53 3 -97 8 -97 15 1 42 28 42
44 0 12 9 16 38 16 l37 0 -1 74 c-1 40 -4 78 -8 85 -12 18 -81 13 -99 -7z m71
-70 c3 -37 1 -42 -17 -42 -18 0 -21 6 -21 46 0 38 3 45 18 42 12 -2 18 -15 20
-46z"/>
<path d="M230 515 c-30 -7 -69 -14 -87 -14 -31 -1 -59 -21 -29 -21 9 0 16 -7
16 -16 0 -11 5 -14 17 -10 9 4 49 12 90 18 66 9 74 13 71 31 -4 26 -11 27 -78
12z"/>
<path d="M520 512 c0 -14 15 -28 52 -46 60 -30 68 -31 68 -11 0 12 -54 47
-112 73 -5 2 -8 -5 -8 -16z"/>
<path d="M203 421 c-51 -9 -93 -19 -93 -23 0 -5 5 -8 10 -8 6 0 10 -7 10 -16
0 -10 6 -14 15 -11 8 4 48 9 90 13 70 6 75 8 75 30 0 12 -3 24 -7 26 -5 2 -50
-3 -100 -11z"/>
<path d="M520 415 c0 -19 7 -28 28 -35 15 -5 40 -16 55 -25 24 -12 29 -13 33
0 9 21 -2 33 -56 60 -61 31 -60 31 -60 0z"/>
<path d="M699 435 c0 -3 -1 -31 -1 -62 0 -46 3 -59 16 -61 11 -3 16 4 16 21 0
16 7 26 20 30 25 6 28 62 4 71 -19 7 -54 8 -55 1z"/>
<path d="M808 428 c-9 -7 -17 -24 -18 -38 -5 -57 0 -70 25 -76 36 -9 55 11 55
60 0 59 -26 81 -62 54z m40 -47 c5 -29 -13 -50 -29 -34 -15 15 -3 66 14 60 7
-2 14 -14 15 -26z"/>
<path d="M890 375 c0 -53 3 -65 16 -65 12 0 15 6 10 26 -5 19 -3 25 6 22 7 -3
14 -14 16 -26 2 -14 11 -22 23 -22 22 0 24 8 4 34 -10 13 -11 24 -4 37 15 29
-6 59 -41 59 l-30 0 0 -65z"/>
<path d="M980 426 c0 -8 6 -16 14 -19 10 -4 12 -18 8 -52 -4 -42 -3 -47 14
-43 15 3 18 11 16 45 -3 31 1 44 14 51 25 14 8 32 -32 32 -22 0 -34 -5 -34
-14z"/>
<path d="M1077 433 c-12 -11 -8 -98 5 -111 16 -16 58 -15 63 1 2 6 6 36 10 65
5 48 4 53 -12 50 -14 -3 -18 -13 -18 -47 0 -26 -5 -46 -12 -48 -9 -3 -13 10
-13 46 0 47 -7 61 -23 44z"/>
<path d="M1186 424 c-18 -18 -21 -66 -6 -95 12 -21 50 -25 68 -7 20 20 15 58
-8 58 -14 0 -19 -6 -17 -19 1 -11 -2 -21 -8 -23 -5 -2 -11 14 -13 36 -3 36 -2
38 21 32 29 -7 41 2 26 21 -15 18 -44 17 -63 -3z"/>
<path d="M1270 394 c0 -58 14 -84 46 -84 29 0 42 27 40 84 -2 62 -26 58 -26
-3 0 -39 -4 -51 -15 -51 -11 0 -15 12 -15 50 0 38 -4 50 -15 50 -11 0 -15 -12
-15 -46z"/>
<path d="M1380 438 c-1 -2 -2 -31 -4 -65 l-2 -63 39 0 c42 0 49 22 9 28 -28 4
-29 22 -2 22 11 0 20 7 20 16 0 11 -6 14 -20 9 -14 -4 -20 -2 -20 9 0 8 10 16
23 18 33 5 27 23 -10 26 -18 2 -33 2 -33 0z"/>
<path d="M1470 425 c-15 -19 -4 -52 21 -60 19 -6 24 -17 12 -28 -3 -4 -12 -2
-20 5 -18 15 -29 2 -13 -17 18 -22 49 -18 59 8 11 28 4 45 -20 52 -10 4 -19
13 -19 22 0 12 3 13 15 3 19 -16 40 -3 24 16 -15 18 -43 18 -59 -1z"/>
<path d="M1572 423 c-5 -10 -12 -31 -15 -48 -3 -16 -9 -38 -12 -47 -5 -11 -2
-18 5 -18 7 0 19 8 26 18 13 16 15 16 28 0 7 -10 19 -18 26 -18 8 0 9 6 5 18
-5 9 -13 38 -18 65 -11 48 -29 60 -45 30z"/>
<path d="M275 350 c-11 -5 -56 -12 -100 -16 -44 -4 -72 -10 -62 -12 9 -2 17
-12 17 -23 0 -16 4 -19 21 -14 11 4 50 10 87 13 54 6 67 11 70 26 5 25 -9 35
-33 26z"/>
<path d="M520 328 c0 -20 10 -28 56 -47 30 -13 57 -21 60 -18 15 15 -11 44
-53 62 -26 11 -51 22 -55 23 -4 2 -8 -7 -8 -20z"/>
<path d="M403 282 c-7 -4 -41 -9 -75 -11 -35 -1 -92 -6 -128 -9 l-65 -7 -3
-70 c-2 -38 -8 -75 -13 -82 -23 -26 3 -34 109 -32 59 1 112 5 117 8 6 3 67 4
137 3 70 -1 129 2 132 6 3 5 -32 17 -77 26 -91 20 -312 23 -334 5 -21 -18 -33
0 -33 51 0 57 -6 55 162 65 88 6 104 4 168 -19 39 -14 84 -33 100 -41 38 -20
42 -19 38 7 -2 16 -20 28 -68 48 -36 14 -80 34 -99 43 -38 19 -50 20 -68 9z"/>
</g>
</svg>
